<svg viewBox="0 0 75 75" fill="none" xmlns="http://www.w3.org/2000/svg">
<circle cx="37.2805" cy="37.2805" r="37.2805" fill="#9368B5"/>
<path d="M23.7959 56.3176V19.0371H39.3477C43.3025 19.0371 46.4022 19.8537 48.6468 21.487C50.927 23.0847 52.0671 25.4458 52.0671 28.5703C52.0671 31.6592 50.9804 34.0026 48.8071 35.6003C46.6338 37.1625 43.7835 37.9437 40.2563 37.9437L41.1648 36.6122C45.3333 36.6122 48.5042 37.4288 50.6776 39.0621C52.8509 40.6953 53.9376 43.0919 53.9376 46.2519C53.9376 49.4474 52.7975 51.9327 50.5173 53.708C48.2727 55.4477 44.888 56.3176 40.3631 56.3176H23.7959ZM27.6972 53.1754H40.3631C43.5341 53.1754 45.939 52.5896 47.5779 51.4179C49.2168 50.2462 50.0363 48.4355 50.0363 45.9856C50.0363 43.5712 49.2168 41.796 47.5779 40.6598C45.939 39.5236 43.5341 38.9556 40.3631 38.9556H27.6972V53.1754ZM27.6972 35.9199H39.134C42.0199 35.9199 44.2288 35.3518 45.7609 34.2156C47.3285 33.0439 48.1123 31.3219 48.1123 29.0496C48.1123 26.7773 47.3285 25.073 45.7609 23.9368C44.2288 22.7652 42.0199 22.1793 39.134 22.1793H27.6972V35.9199Z" fill="white"/>
</svg>
