<svg viewBox="0 0 145 95" fill="none" xmlns="http://www.w3.org/2000/svg">
<path d="M116.362 0H31.468C27.5609 0 24.3936 2.91013 24.3936 6.49996V84.4994C24.3936 88.0893 27.5609 90.9994 31.468 90.9994H116.362C120.269 90.9994 123.436 88.0893 123.436 84.4994V6.49996C123.436 2.91013 120.269 0 116.362 0Z" fill="url(#paint0_linear_491_20237)"/>
<g filter="url(#filter0_d_491_20237)">
<path d="M105.043 6.5H9.53724C7.58368 6.5 6 7.95506 6 9.74998V25.9999C6 27.7948 7.58368 29.2498 9.53724 29.2498H105.043C106.996 29.2498 108.58 27.7948 108.58 25.9999V9.74998C108.58 7.95506 106.996 6.5 105.043 6.5Z" fill="white"/>
</g>
<path d="M54.8134 11.6992H36.4197C35.2476 11.6992 34.2974 12.5723 34.2974 13.6492C34.2974 14.7262 35.2476 15.5992 36.4197 15.5992H54.8134C55.9855 15.5992 56.9357 14.7262 56.9357 13.6492C56.9357 12.5723 55.9855 11.6992 54.8134 11.6992Z" fill="#B4DAFF"/>
<path d="M67.5474 20.1484H36.4197C35.2476 20.1484 34.2974 21.0215 34.2974 22.0984C34.2974 23.1754 35.2476 24.0484 36.4197 24.0484H67.5474C68.7196 24.0484 69.6698 23.1754 69.6698 22.0984C69.6698 21.0215 68.7196 20.1484 67.5474 20.1484Z" fill="#DEE9FC"/>
<path d="M25.1013 8.44922H11.6598C9.70623 8.44922 8.12256 9.90428 8.12256 11.6992V24.0491C8.12256 25.844 9.70623 27.2991 11.6598 27.2991H25.1013C27.0549 27.2991 28.6385 25.844 28.6385 24.0491V11.6992C28.6385 9.90428 27.0549 8.44922 25.1013 8.44922Z" fill="#1485FD"/>
<path d="M16.7689 20.0064H18.1838L18.1993 19.5059C18.1993 18.8481 18.6507 18.6765 19.2888 18.4906C19.9289 18.3233 20.4923 17.9691 20.8939 17.4815C21.2954 16.9938 21.5132 16.3994 21.5144 15.7879C21.5284 15.4146 21.4579 15.0427 21.3074 14.6957C21.1569 14.3487 20.9296 14.0341 20.6399 13.772C20.3503 13.5099 20.0045 13.3059 19.6246 13.1729C19.2447 13.0399 18.8388 12.9809 18.4328 12.9994C18.0036 12.9908 17.5771 13.0624 17.179 13.2098C16.7809 13.3573 16.4195 13.5774 16.1168 13.857C15.8141 14.1366 15.5763 14.4698 15.4179 14.8363C15.2596 15.2029 15.1839 15.5952 15.1955 15.9894H16.6585C16.6529 15.7717 16.6947 15.5552 16.7814 15.3526C16.8681 15.15 16.9979 14.9653 17.1633 14.8093C17.3287 14.6534 17.5263 14.5293 17.7445 14.4444C17.9627 14.3596 18.1972 14.3156 18.4342 14.315C18.6479 14.3036 18.8618 14.3347 19.0613 14.406C19.2607 14.4773 19.4412 14.5872 19.5903 14.7283C19.7395 14.8694 19.8538 15.0384 19.9255 15.2237C19.9973 15.409 20.0248 15.6063 20.0061 15.8022C19.9967 16.1193 19.8767 16.4253 19.6637 16.675C19.4508 16.9247 19.1562 17.105 18.8233 17.1893L18.3097 17.3765C17.8068 17.4878 17.3678 17.7686 17.0796 18.1632C16.7913 18.5578 16.6749 19.0374 16.7533 19.5072L16.7689 20.0064ZM17.4692 23.0965C17.6078 23.101 17.7459 23.0799 17.8755 23.0346C18.005 22.9892 18.1233 22.9204 18.2234 22.8323C18.3236 22.7442 18.4034 22.6386 18.4583 22.5216C18.5133 22.4046 18.5421 22.2787 18.5431 22.1514C18.5419 22.0241 18.5129 21.8984 18.4579 21.7816C18.4029 21.6647 18.323 21.5592 18.2229 21.4713C18.1228 21.3833 18.0046 21.3146 17.8751 21.2694C17.7457 21.2241 17.6077 21.2031 17.4692 21.2076C17.3308 21.2031 17.1928 21.2241 17.0633 21.2694C16.9339 21.3146 16.8156 21.3833 16.7155 21.4713C16.6154 21.5592 16.5355 21.6647 16.4805 21.7816C16.4255 21.8984 16.3966 22.0241 16.3953 22.1514C16.3964 22.2787 16.4252 22.4046 16.4801 22.5216C16.535 22.6386 16.6149 22.7442 16.715 22.8323C16.8151 22.9204 16.9335 22.9892 17.063 23.0346C17.1926 23.0799 17.3307 23.101 17.4692 23.0965Z" fill="white"/>
<g filter="url(#filter1_d_491_20237)">
<path d="M39.9572 34.4492H135.463C136.401 34.4492 137.3 34.7916 137.964 35.4011C138.627 36.0106 139 36.8372 139 37.6992V53.9491C139 54.811 138.627 55.6377 137.964 56.2472C137.3 56.8567 136.401 57.1991 135.463 57.1991H39.9572C39.019 57.1991 38.1193 56.8567 37.456 56.2472C36.7926 55.6377 36.4199 54.811 36.4199 53.9491V37.6992C36.4199 36.8372 36.7926 36.0106 37.456 35.4011C38.1193 34.7916 39.019 34.4492 39.9572 34.4492V34.4492Z" fill="white"/>
</g>
<path d="M85.2333 39.6504H66.8396C65.6675 39.6504 64.7173 40.5234 64.7173 41.6004C64.7173 42.6773 65.6675 43.5504 66.8396 43.5504H85.2333C86.4054 43.5504 87.3556 42.6773 87.3556 41.6004C87.3556 40.5234 86.4054 39.6504 85.2333 39.6504Z" fill="#B4DAFF"/>
<path d="M97.9673 48.0996H66.8396C65.6675 48.0996 64.7173 48.9726 64.7173 50.0496C64.7173 51.1265 65.6675 51.9996 66.8396 51.9996H97.9673C99.1395 51.9996 100.09 51.1265 100.09 50.0496C100.09 48.9726 99.1395 48.0996 97.9673 48.0996Z" fill="#DEE9FC"/>
<path d="M55.5217 36.4004H42.0802C40.1266 36.4004 38.543 37.8555 38.543 39.6504V52.0003C38.543 53.7952 40.1266 55.2503 42.0802 55.2503H55.5217C57.4753 55.2503 59.059 53.7952 59.059 52.0003V39.6504C59.059 37.8555 57.4753 36.4004 55.5217 36.4004Z" fill="#1485FD"/>
<path d="M47.1893 47.9576H48.6042L48.6197 47.4571C48.6197 46.7993 49.0711 46.6277 49.7092 46.4418C50.3493 46.2745 50.9127 45.9202 51.3143 45.4326C51.7158 44.945 51.9336 44.3505 51.9348 43.7391C51.9488 43.3658 51.8784 42.9938 51.7278 42.6468C51.5773 42.2998 51.35 41.9853 51.0603 41.7232C50.7707 41.4611 50.4249 41.2571 50.045 41.1241C49.6651 40.9911 49.2592 40.932 48.8532 40.9506C48.4241 40.942 47.9975 41.0136 47.5994 41.161C47.2013 41.3084 46.8399 41.5286 46.5372 41.8082C46.2345 42.0878 45.9967 42.421 45.8383 42.7875C45.68 43.1541 45.6043 43.5464 45.6159 43.9406H47.0789C47.0734 43.7229 47.1151 43.5064 47.2018 43.3038C47.2885 43.1011 47.4183 42.9164 47.5837 42.7605C47.7491 42.6045 47.9467 42.4805 48.1649 42.3956C48.3832 42.3107 48.6176 42.2667 48.8546 42.2662C49.0683 42.2548 49.2822 42.2858 49.4817 42.3571C49.6812 42.4285 49.8616 42.5384 50.0107 42.6795C50.1599 42.8206 50.2742 42.9895 50.3459 43.1748C50.4177 43.3601 50.4452 43.5575 50.4265 43.7534C50.4171 44.0705 50.2971 44.3765 50.0841 44.6262C49.8712 44.8759 49.5766 45.0562 49.2437 45.1405L48.7301 45.3277C48.2272 45.439 47.7882 45.7198 47.5 46.1144C47.2117 46.509 47.0953 46.9886 47.1737 47.4584L47.1893 47.9576ZM47.8896 51.0476C48.0282 51.0522 48.1663 51.0311 48.2959 50.9857C48.4254 50.9404 48.5437 50.8716 48.6439 50.7835C48.744 50.6954 48.8238 50.5897 48.8788 50.4728C48.9337 50.3558 48.9625 50.2299 48.9635 50.1025C48.9623 49.9753 48.9333 49.8495 48.8783 49.7327C48.8234 49.6159 48.7434 49.5104 48.6433 49.4224C48.5433 49.3345 48.425 49.2658 48.2955 49.2205C48.1661 49.1752 48.0281 49.1542 47.8896 49.1587C47.7512 49.1542 47.6132 49.1752 47.4837 49.2205C47.3543 49.2658 47.236 49.3345 47.1359 49.4224C47.0358 49.5104 46.9559 49.6159 46.9009 49.7327C46.8459 49.8495 46.817 49.9753 46.8157 50.1025C46.8168 50.2299 46.8456 50.3558 46.9005 50.4728C46.9554 50.5897 47.0353 50.6954 47.1354 50.7835C47.2355 50.8716 47.3539 50.9404 47.4834 50.9857C47.613 51.0311 47.7511 51.0522 47.8896 51.0476Z" fill="white"/>
<g filter="url(#filter2_d_491_20237)">
<path d="M9.53724 62.3984H105.043C105.981 62.3984 106.881 62.7408 107.544 63.3503C108.207 63.9598 108.58 64.7865 108.58 65.6484V81.8983C108.58 82.7603 108.207 83.5869 107.544 84.1964C106.881 84.8059 105.981 85.1483 105.043 85.1483H9.53724C8.59911 85.1483 7.69939 84.8059 7.03603 84.1964C6.37267 83.5869 6 82.7603 6 81.8983V65.6484C6 64.7865 6.37267 63.9598 7.03603 63.3503C7.69939 62.7408 8.59911 62.3984 9.53724 62.3984V62.3984Z" fill="white"/>
</g>
<path d="M54.8134 67.5996H36.4197C35.2476 67.5996 34.2974 68.4726 34.2974 69.5496C34.2974 70.6265 35.2476 71.4996 36.4197 71.4996H54.8134C55.9855 71.4996 56.9357 70.6265 56.9357 69.5496C56.9357 68.4726 55.9855 67.5996 54.8134 67.5996Z" fill="#B4DAFF"/>
<path d="M67.5474 76.0488H36.4197C35.2476 76.0488 34.2974 76.9219 34.2974 77.9988C34.2974 79.0758 35.2476 79.9488 36.4197 79.9488H67.5474C68.7196 79.9488 69.6698 79.0758 69.6698 77.9988C69.6698 76.9219 68.7196 76.0488 67.5474 76.0488Z" fill="#DEE9FC"/>
<path d="M25.1013 64.3496H11.6598C9.70623 64.3496 8.12256 65.8047 8.12256 67.5996V79.9495C8.12256 81.7444 9.70623 83.1995 11.6598 83.1995H25.1013C27.0549 83.1995 28.6385 81.7444 28.6385 79.9495V67.5996C28.6385 65.8047 27.0549 64.3496 25.1013 64.3496Z" fill="#1485FD"/>
<path d="M16.7689 75.9068H18.1838L18.1993 75.4063C18.1993 74.7485 18.6507 74.5769 19.2888 74.391C19.9289 74.2237 20.4923 73.8695 20.8939 73.3818C21.2954 72.8942 21.5132 72.2998 21.5144 71.6883C21.5284 71.315 21.4579 70.943 21.3074 70.596C21.1569 70.2491 20.9296 69.9345 20.6399 69.6724C20.3503 69.4103 20.0045 69.2063 19.6246 69.0733C19.2447 68.9403 18.8388 68.8812 18.4328 68.8998C18.0036 68.8912 17.5771 68.9628 17.179 69.1102C16.7809 69.2576 16.4195 69.4778 16.1168 69.7574C15.8141 70.037 15.5763 70.3702 15.4179 70.7367C15.2596 71.1033 15.1839 71.4956 15.1955 71.8898H16.6585C16.6529 71.6721 16.6947 71.4556 16.7814 71.253C16.8681 71.0504 16.9979 70.8656 17.1633 70.7097C17.3287 70.5538 17.5263 70.4297 17.7445 70.3448C17.9627 70.26 18.1972 70.216 18.4342 70.2154C18.6479 70.204 18.8618 70.2351 19.0613 70.3064C19.2607 70.3777 19.4412 70.4876 19.5903 70.6287C19.7395 70.7698 19.8538 70.9387 19.9255 71.124C19.9973 71.3094 20.0248 71.5067 20.0061 71.7026C19.9967 72.0197 19.8767 72.3257 19.6637 72.5754C19.4508 72.8251 19.1562 73.0054 18.8233 73.0897L18.3097 73.2769C17.8068 73.3882 17.3678 73.669 17.0796 74.0636C16.7913 74.4582 16.6749 74.9378 16.7533 75.4076L16.7689 75.9068ZM17.4692 78.9969C17.6078 79.0014 17.7459 78.9803 17.8755 78.935C18.005 78.8896 18.1233 78.8208 18.2234 78.7327C18.3236 78.6446 18.4034 78.5389 18.4583 78.422C18.5133 78.305 18.5421 78.1791 18.5431 78.0518C18.5419 77.9245 18.5129 77.7987 18.4579 77.6819C18.4029 77.5651 18.323 77.4596 18.2229 77.3717C18.1228 77.2837 18.0046 77.215 17.8751 77.1697C17.7457 77.1245 17.6077 77.1034 17.4692 77.108C17.3308 77.1034 17.1928 77.1245 17.0633 77.1697C16.9339 77.215 16.8156 77.2837 16.7155 77.3717C16.6154 77.4596 16.5355 77.5651 16.4805 77.6819C16.4255 77.7987 16.3966 77.9245 16.3953 78.0518C16.3964 78.1791 16.4252 78.305 16.4801 78.422C16.535 78.5389 16.6149 78.6446 16.715 78.7327C16.8151 78.8208 16.9335 78.8896 17.063 78.935C17.1926 78.9803 17.3307 79.0014 17.4692 78.9969Z" fill="white"/>
<defs>
<filter id="filter0_d_491_20237" x="0" y="3.5" width="114.58" height="34.75" filterUnits="userSpaceOnUse" color-interpolation-filters="sRGB">
<feFlood flood-opacity="0" result="BackgroundImageFix"/>
<feColorMatrix in="SourceAlpha" type="matrix" values="0 0 0 0 0 0 0 0 0 0 0 0 0 0 0 0 0 0 127 0" result="hardAlpha"/>
<feOffset dy="3"/>
<feGaussianBlur stdDeviation="3"/>
<feColorMatrix type="matrix" values="0 0 0 0 0 0 0 0 0 0 0 0 0 0 0 0 0 0 0.161 0"/>
<feBlend mode="normal" in2="BackgroundImageFix" result="effect1_dropShadow_491_20237"/>
<feBlend mode="normal" in="SourceGraphic" in2="effect1_dropShadow_491_20237" result="shape"/>
</filter>
<filter id="filter1_d_491_20237" x="30.4199" y="31.4492" width="114.58" height="34.75" filterUnits="userSpaceOnUse" color-interpolation-filters="sRGB">
<feFlood flood-opacity="0" result="BackgroundImageFix"/>
<feColorMatrix in="SourceAlpha" type="matrix" values="0 0 0 0 0 0 0 0 0 0 0 0 0 0 0 0 0 0 127 0" result="hardAlpha"/>
<feOffset dy="3"/>
<feGaussianBlur stdDeviation="3"/>
<feColorMatrix type="matrix" values="0 0 0 0 0 0 0 0 0 0 0 0 0 0 0 0 0 0 0.161 0"/>
<feBlend mode="normal" in2="BackgroundImageFix" result="effect1_dropShadow_491_20237"/>
<feBlend mode="normal" in="SourceGraphic" in2="effect1_dropShadow_491_20237" result="shape"/>
</filter>
<filter id="filter2_d_491_20237" x="0" y="59.3984" width="114.58" height="34.75" filterUnits="userSpaceOnUse" color-interpolation-filters="sRGB">
<feFlood flood-opacity="0" result="BackgroundImageFix"/>
<feColorMatrix in="SourceAlpha" type="matrix" values="0 0 0 0 0 0 0 0 0 0 0 0 0 0 0 0 0 0 127 0" result="hardAlpha"/>
<feOffset dy="3"/>
<feGaussianBlur stdDeviation="3"/>
<feColorMatrix type="matrix" values="0 0 0 0 0 0 0 0 0 0 0 0 0 0 0 0 0 0 0.161 0"/>
<feBlend mode="normal" in2="BackgroundImageFix" result="effect1_dropShadow_491_20237"/>
<feBlend mode="normal" in="SourceGraphic" in2="effect1_dropShadow_491_20237" result="shape"/>
</filter>
<linearGradient id="paint0_linear_491_20237" x1="73.9149" y1="0" x2="73.9149" y2="90.9994" gradientUnits="userSpaceOnUse">
<stop stop-color="#E3ECFA"/>
<stop offset="1" stop-color="#DAE7FF"/>
</linearGradient>
</defs>
</svg>
