<svg viewBox="0 0 64 64" fill="none" xmlns="http://www.w3.org/2000/svg">
<g clip-path="url(#clip0_513_20125)">
<path d="M45.333 29.332C45.333 36.692 39.3597 42.6654 31.9997 42.6654C24.6397 42.6654 18.6663 36.692 18.6663 29.332H13.333C13.333 38.7454 20.293 46.4787 29.333 47.7854V55.9987H34.6663V47.7854C43.7063 46.4787 50.6663 38.7454 50.6663 29.332H45.333Z" fill=""/>
<path d="M32 37.332C36.4267 37.332 40 33.7587 40 29.332V13.332C40 8.90536 36.4267 5.33203 32 5.33203C27.5733 5.33203 24 8.90536 24 13.332V29.332C24 33.7587 27.5733 37.332 32 37.332ZM29.3333 13.332C29.3333 11.8654 30.5333 10.6654 32 10.6654C33.4667 10.6654 34.6667 11.8654 34.6667 13.332V29.332C34.6667 30.7987 33.4667 31.9987 32 31.9987C30.5333 31.9987 29.3333 30.7987 29.3333 29.332V13.332Z" fill=""/>
<path d="M32 37.332C36.4267 37.332 40 33.7587 40 29.332V13.332C40 8.90536 36.4267 5.33203 32 5.33203C27.5733 5.33203 24 8.90536 24 13.332V29.332C24 33.7587 27.5733 37.332 32 37.332Z" fill=""/>
</g>
<defs>
<clipPath id="clip0_513_20125">
<rect width="64" height="64" fill="white"/>
</clipPath>
</defs>
</svg>
