<svg viewBox="0 0 60 58" fill="none" xmlns="http://www.w3.org/2000/svg">
<path d="M29.0802 1.30158C29.4167 0.466625 30.5988 0.466624 30.9352 1.30158L38.3297 19.6506C38.4729 20.0058 38.8063 20.2481 39.1884 20.2745L58.9244 21.6369C59.8225 21.6989 60.1877 22.8231 59.4976 23.4011L44.3317 36.1039C44.0381 36.3498 43.9107 36.7418 44.0037 37.1133L48.8067 56.3043C49.0253 57.1776 48.069 57.8724 47.306 57.3947L30.5384 46.8964C30.2138 46.6932 29.8017 46.6932 29.4771 46.8964L12.7095 57.3947C11.9465 57.8724 10.9902 57.1776 11.2087 56.3043L16.0118 37.1133C16.1047 36.7418 15.9774 36.3498 15.6838 36.1039L0.517831 23.4011C-0.172284 22.8231 0.192995 21.6989 1.09107 21.6369L20.8271 20.2745C21.2091 20.2481 21.5426 20.0058 21.6857 19.6506L29.0802 1.30158Z" fill=""/>
</svg>
