<svg viewBox="0 0 296 39" fill="none" xmlns="http://www.w3.org/2000/svg">
<path d="M288.41 38.6226V0.488281H295.548V38.6226H288.41Z" fill="white"/>
<path d="M241.849 38.6226L259.144 0.488281H266.172L283.522 38.6226H276.055L261.175 4.24724H264.03L249.206 38.6226H241.849ZM249.81 29.7972L251.732 24.2405H272.486L274.408 29.7972H249.81Z" fill="white"/>
<path d="M211.077 39.0043C207.819 39.0043 204.964 38.3688 202.512 37.0976C200.096 35.7901 198.211 34.0105 196.856 31.7588C195.539 29.5071 194.88 26.9466 194.88 24.0775C194.88 21.172 195.52 18.6115 196.802 16.3961C198.119 14.1444 199.913 12.3829 202.182 11.1118C204.488 9.84065 207.105 9.20508 210.034 9.20508C212.889 9.20508 215.433 9.82249 217.666 11.0573C219.898 12.2921 221.655 14.0354 222.937 16.2872C224.218 18.5389 224.858 21.1902 224.858 24.2409C224.858 24.5314 224.84 24.8583 224.803 25.2215C224.803 25.5847 224.785 25.9297 224.748 26.2566H200.316V21.7349H221.125L218.434 23.1513C218.471 21.4807 218.123 20.0098 217.391 18.7387C216.659 17.4675 215.652 16.4688 214.371 15.7424C213.127 15.016 211.681 14.6528 210.034 14.6528C208.35 14.6528 206.868 15.016 205.586 15.7424C204.342 16.4688 203.354 17.4857 202.622 18.7931C201.926 20.0643 201.578 21.5715 201.578 23.3148V24.4043C201.578 26.1476 201.981 27.6911 202.786 29.0349C203.592 30.3787 204.726 31.4138 206.19 32.1402C207.655 32.8665 209.338 33.2297 211.242 33.2297C212.889 33.2297 214.371 32.9755 215.689 32.467C217.007 31.9586 218.178 31.1596 219.203 30.07L222.882 34.2648C221.564 35.7901 219.898 36.9705 217.885 37.8058C215.909 38.6048 213.639 39.0043 211.077 39.0043Z" fill="white"/>
<path d="M174.776 38.623V9.53194H181.31V17.5401L180.541 15.1976C181.42 13.2364 182.793 11.7474 184.659 10.7304C186.563 9.71353 188.924 9.20508 191.742 9.20508V15.6879C191.449 15.6153 191.175 15.579 190.919 15.579C190.662 15.5426 190.406 15.5245 190.15 15.5245C187.551 15.5245 185.483 16.2872 183.946 17.8125C182.408 19.3016 181.64 21.5352 181.64 24.5133V38.623H174.776Z" fill="white"/>
<path d="M149.813 39.0041C147.324 39.0041 145.128 38.5501 143.224 37.6422C141.321 36.6979 139.838 35.2815 138.777 33.3929C137.715 31.4681 137.185 29.0529 137.185 26.1474V9.53174H144.048V25.2213C144.048 27.8362 144.633 29.7974 145.805 31.1049C147.013 32.376 148.715 33.0116 150.911 33.0116C152.521 33.0116 153.912 32.6847 155.084 32.031C156.292 31.3773 157.225 30.3967 157.884 29.0892C158.579 27.7817 158.927 26.1656 158.927 24.2407V9.53174H165.79V38.6228H159.257V30.778L160.41 33.175C159.421 35.0636 157.975 36.5163 156.072 37.5332C154.169 38.5138 152.082 39.0041 149.813 39.0041Z" fill="white"/>
<path d="M125.172 39.0038C121.95 39.0038 119.461 38.1866 117.704 36.5523C115.947 34.8816 115.069 32.4301 115.069 29.1978V3.10303H121.932V29.0344C121.932 30.4145 122.28 31.4859 122.975 32.2485C123.707 33.0112 124.714 33.3926 125.995 33.3926C127.533 33.3926 128.814 32.9931 129.839 32.1941L131.76 37.0426C130.955 37.6963 129.967 38.1866 128.795 38.5135C127.624 38.8403 126.416 39.0038 125.172 39.0038ZM110.237 15.1971V9.74929H129.784V15.1971H110.237Z" fill="white"/>
<path d="M93.1823 9.20508C95.5249 9.20508 97.6113 9.65906 99.4415 10.567C101.308 11.475 102.772 12.8732 103.834 14.7618C104.895 16.614 105.426 19.011 105.426 21.9528V38.623H98.563V22.8245C98.563 20.2459 97.9407 18.321 96.6962 17.0499C95.4883 15.7787 93.7862 15.1431 91.59 15.1431C89.9794 15.1431 88.5519 15.47 87.3074 16.1237C86.0628 16.7775 85.0928 17.7581 84.3974 19.0655C83.7385 20.3367 83.4091 21.9528 83.4091 23.914V38.623H76.5459V9.53194H83.0797V17.3767L81.9266 14.9797C82.9515 13.1275 84.434 11.711 86.374 10.7304C88.3506 9.71353 90.62 9.20508 93.1823 9.20508Z" fill="white"/>
<path d="M56.1727 39.0043C52.915 39.0043 50.0599 38.3688 47.6074 37.0976C45.1916 35.7901 43.3065 34.0105 41.9522 31.7588C40.6344 29.5071 39.9756 26.9466 39.9756 24.0775C39.9756 21.172 40.6161 18.6115 41.8973 16.3961C43.215 14.1444 45.0086 12.3829 47.278 11.1118C49.584 9.84065 52.2012 9.20508 55.1295 9.20508C57.9846 9.20508 60.5285 9.82249 62.7613 11.0573C64.9942 12.2921 66.7511 14.0354 68.0323 16.2872C69.3134 18.5389 69.954 21.1902 69.954 24.2409C69.954 24.5314 69.9357 24.8583 69.899 25.2215C69.899 25.5847 69.8807 25.9297 69.8441 26.2566H45.4112V21.7349H66.2204L63.53 23.1513C63.5666 21.4807 63.2189 20.0098 62.4868 18.7387C61.7547 17.4675 60.7481 16.4688 59.467 15.7424C58.2225 15.016 56.7767 14.6528 55.1295 14.6528C53.4457 14.6528 51.9633 15.016 50.6821 15.7424C49.4376 16.4688 48.4493 17.4857 47.7173 18.7931C47.0218 20.0643 46.674 21.5715 46.674 23.3148V24.4043C46.674 26.1476 47.0767 27.6911 47.882 29.0349C48.6872 30.3787 49.822 31.4138 51.2861 32.1402C52.7503 32.8665 54.434 33.2297 56.3374 33.2297C57.9846 33.2297 59.467 32.9755 60.7847 32.467C62.1025 31.9586 63.2738 31.1596 64.2987 30.07L67.9774 34.2648C66.6596 35.7901 64.9942 36.9705 62.981 37.8058C61.0044 38.6048 58.7349 39.0043 56.1727 39.0043Z" fill="white"/>
<path d="M17.4192 38.6226L0.618164 0.488281H8.35983L23.349 34.9726H18.9017L34.0556 0.488281H41.1933L24.4471 38.6226H17.4192Z" fill="white"/>
</svg>
